<svg xmlns="http://www.w3.org/2000/svg" version="1.1" xmlns:xlink="http://www.w3.org/1999/xlink" xmlns:svgjs="http://svgjs.dev/svgjs" width="1500" height="693" viewBox="0 0 1500 693"><g transform="matrix(1,0,0,1,-0.9090909090909918,-1.0036420968827429)"><svg viewBox="0 0 396 183" data-background-color="#ffffff" preserveAspectRatio="xMidYMid meet" height="693" width="1500" xmlns="http://www.w3.org/2000/svg" xmlns:xlink="http://www.w3.org/1999/xlink"><g id="tight-bounds" transform="matrix(1,0,0,1,0.2400000000000091,0.2650310299127625)"><svg viewBox="0 0 395.52 182.46993794017447" height="182.46993794017447" width="395.52"><g><svg viewBox="0 0 681.9853166917732 314.6283839321857" height="182.46993794017447" width="395.52"><g transform="matrix(1,0,0,1,284.48771669177324,0)"><svg viewBox="0 0 397.4975999999999 314.6283839321857" height="314.6283839321857" width="397.4975999999999"><g id="textblocktransform"><svg viewBox="0 0 397.4975999999999 314.6283839321857" height="314.6283839321857" width="397.4975999999999" id="textblock"><g><rect width="397.4975999999999" height="14.834664358657403" x="0" y="181.97411024380253" fill="#3c3c3c" opacity="1" stroke-width="0" stroke="transparent" fill-opacity="1" class="rect-yte-0" data-fill-palette-color="primary" rx="1%" id="yte-0" data-palette-color="#3c3c3c"></rect></g><g transform="matrix(1,0,0,1,0.9887999999999693,0)"><svg viewBox="0 0 395.52 164.49872029250454" height="164.49872029250454" width="395.52"><g transform="matrix(1,0,0,1,0,0)"><svg width="395.52" viewBox="3.9 -35 109.39 45.5" height="164.49872029250454" data-palette-color="#3c3c3c"><path d="M13.95 0L3.9-35 6.9-35 15.85-3.45 24.8-35 27.8-35 17.8 0 13.95 0ZM45.05-1.75Q43.25-0.6 40.95 0 38.65 0.6 36.35 0.6L36.35 0.6Q32.65 0.6 30.47-1.23 28.3-3.05 28.3-6.7L28.3-6.7 28.3-16.95Q28.3-21 30.82-23.25 33.35-25.5 37.5-25.5L37.5-25.5Q41.65-25.5 43.97-23.28 46.3-21.05 46.3-17.1L46.3-17.1 46.3-10.6 31.1-9.75 31.1-6.7Q31.1-4.3 32.65-3.1 34.2-1.9 36.7-1.9L36.7-1.9Q40.2-1.9 43.95-3.9L43.95-3.9 45.05-1.75ZM43.5-17.45Q43.5-20.55 41.55-21.83 39.6-23.1 37.45-23.1L37.45-23.1Q34.7-23.1 32.9-21.6 31.1-20.1 31.1-16.9L31.1-16.9 31.1-12.5 43.5-13.1 43.5-17.45ZM61.75 8.35Q65.05 7.1 65.05 3.15L65.05 3.15 65.05-3.05Q62.95 0.6 58.3 0.6L58.3 0.6Q53.9 0.6 51.45-1.8 49-4.2 49-8.8L49-8.8 49-16.25Q49-20.65 51.57-23.08 54.15-25.5 58.5-25.5L58.5-25.5Q63.15-25.5 65.25-22.15L65.25-22.15 65.05-25.05 67.84-25.05 67.84 3.2Q67.84 6.2 66.59 7.9 65.34 9.6 62.5 10.5L62.5 10.5 61.75 8.35ZM65.05-16.8Q65.05-19.9 63.05-21.43 61.05-22.95 58.3-22.95L58.3-22.95Q55.65-22.95 53.72-21.33 51.8-19.7 51.8-16L51.8-16 51.8-8.35Q51.8-5.2 53.57-3.6 55.35-2 58.3-2L58.3-2Q61.1-2 63.07-3.73 65.05-5.45 65.05-8.65L65.05-8.65 65.05-16.8ZM89.84 0Q84.44 0.55 82.04 0.55L82.04 0.55Q76.79 0.55 73.69-1.4 70.59-3.35 70.59-8.45L70.59-8.45 70.59-12.6Q70.59-17.55 74.04-19.25L74.04-19.25Q75.69-20.1 78.24-20.1L78.24-20.1Q80.59-20.1 82.99-19.33 85.39-18.55 87.04-17.3L87.04-17.3Q87.04-20.05 85.44-21.68 83.84-23.3 79.29-23.3L79.29-23.3 79.44-25.45Q84.24-25.45 86.52-23.93 88.79-22.4 89.32-20.3 89.84-18.2 89.84-14.9L89.84-14.9 89.84 0ZM87.04-15.15Q84.99-16.1 82.67-16.8 80.34-17.5 78.39-17.5L78.39-17.5Q73.34-17.5 73.34-12.45L73.34-12.45 73.34-8.1Q73.34-4.85 75.59-3.38 77.84-1.9 81.99-1.9L81.99-1.9Q84.14-1.9 87.04-2.3L87.04-2.3 87.04-15.15ZM110.54 0L110.54-17.15Q110.54-20.2 108.77-21.58 106.99-22.95 104.19-22.95L104.19-22.95Q102.49-22.95 100.74-22.48 98.99-22 97.64-21.25L97.64-21.25 97.64 0 94.84 0 94.84-25.05 97.64-25.05 97.44-23.35Q98.64-24.4 100.49-24.93 102.34-25.45 104.34-25.45L104.34-25.45Q107.09-25.45 109.04-24.55L109.04-24.55Q111.04-23.65 112.17-21.85 113.29-20.05 113.29-17.3L113.29-17.3 113.29 0 110.54 0Z" opacity="1" transform="matrix(1,0,0,1,0,0)" fill="#3c3c3c" class="wordmark-text-0" data-fill-palette-color="primary" id="text-0"></path></svg></g></svg></g><g transform="matrix(1,0,0,1,114.786728873303,214.2841645537579)"><svg viewBox="0 0 167.9241422533939 100.34421937842778" height="100.34421937842778" width="167.9241422533939"><g transform="matrix(1,0,0,1,0,0)"><svg width="167.9241422533939" viewBox="2.25 -34.86 71.94 42.99" height="100.34421937842778" data-palette-color="#3c3c3c"><path d="M10.79 0L10.79 0 2.25 0 2.25-34.86 10.91-34.86Q15.45-34.86 17.49-33.4 19.53-31.93 19.6-28.54L19.6-28.54Q19.73-24.58 19.76-21.02 19.8-17.46 19.76-13.89 19.73-10.33 19.6-6.35L19.6-6.35Q19.53-2.95 17.48-1.48 15.43 0 10.79 0ZM10.91-31.74L5.64-31.74 5.64-3.13 10.79-3.13Q13.65-3.13 14.92-3.83 16.19-4.54 16.21-5.98L16.21-5.98Q16.58-17.43 16.21-28.93L16.21-28.93Q16.19-30.37 14.93-31.05 13.67-31.74 10.91-31.74L10.91-31.74ZM29.51 0.27L29.51 0.27Q26.54 0.27 25.11-0.9 23.68-2.08 23.43-4.57L23.43-4.57Q23.41-5.05 23.37-5.54 23.34-6.03 23.39-6.49L23.39-6.49Q23.56-8.67 24.75-10.14 25.95-11.62 29.29-12.84L29.29-12.84Q30.66-13.33 32.18-13.72 33.69-14.11 35.18-14.48L35.18-14.48 35.18-18.99Q35.18-20.19 34.27-20.76 33.37-21.34 31.13-21.34L31.13-21.34Q29.17-21.34 28.16-20.85 27.15-20.36 27.05-19.07L27.05-19.07Q27-18.46 27-17.32 27-16.19 27.05-15.41L27.05-15.41 24-15.41Q23.95-16.02 23.9-16.99 23.85-17.97 23.92-18.73L23.92-18.73Q24.05-21.56 25.77-22.81 27.49-24.07 31.25-24.07L31.25-24.07Q35.18-24.07 36.7-22.71 38.23-21.34 38.25-18.21L38.25-18.21 38.25 0 35.18 0 35.18-2.25 34.49-2.25Q33.88-1.03 32.75-0.38 31.61 0.27 29.51 0.27ZM30.3-2.37L30.3-2.37Q33.81-2.37 35.15-4.47L35.15-4.47 35.15-11.87Q33.98-11.62 32.75-11.29 31.52-10.96 29.86-10.4L29.86-10.4Q27.88-9.67 27.22-8.72 26.56-7.76 26.46-6.49L26.46-6.49Q26.49-6.13 26.5-5.7 26.51-5.27 26.56-4.81L26.56-4.81Q26.73-3.64 27.73-3 28.73-2.37 30.3-2.37ZM44.94 8.13L44.94 8.13Q44.16 8.13 43.07 8.06 41.99 7.98 41.28 7.91L41.28 7.91 41.28 5.2Q42.79 5.32 44.84 5.32L44.84 5.32Q47.02 5.32 47.79 4.8 48.55 4.27 48.82 2.95L48.82 2.95 49.53 0 46.24 0 41.84-23.75 45.06-23.75 46.7-12.43 48.58-2.71 50.07-2.71 52.07-12.43 53.8-23.75 57.05-23.75 51.92 2.71Q51.46 5.59 49.97 6.86 48.48 8.13 44.94 8.13ZM66.64 0.29L66.64 0.29Q62.71 0.29 61.19-0.98 59.66-2.25 59.54-5.13L59.54-5.13Q59.49-5.88 59.48-6.82 59.47-7.76 59.56-8.47L59.56-8.47 62.42-8.47Q62.37-7.35 62.38-6.41 62.39-5.47 62.42-4.81L62.42-4.81Q62.44-3.47 63.36-2.95 64.27-2.44 66.64-2.44L66.64-2.44Q69.06-2.44 70.05-2.95 71.04-3.47 71.11-4.81L71.11-4.81Q71.18-5.64 71.21-6.04 71.23-6.45 71.21-7.2L71.21-7.2Q71.14-8.45 70.55-9.13 69.96-9.81 68.01-10.11L68.01-10.11 65.15-10.77Q62.96-11.23 61.76-11.94 60.56-12.65 60.08-13.78 59.59-14.92 59.49-16.65L59.49-16.65Q59.42-17.53 59.61-18.58L59.61-18.58Q59.66-21.53 61.21-22.8 62.76-24.07 66.86-24.07L66.86-24.07Q70.79-24.07 72.32-22.83 73.85-21.58 73.99-18.73L73.99-18.73Q73.99-17.99 73.98-17.05 73.97-16.11 73.89-15.41L73.89-15.41 70.94-15.41Q71.06-16.26 71.05-17.36 71.04-18.46 70.99-19.07L70.99-19.07Q70.96-20.36 70.1-20.85 69.23-21.34 66.86-21.34L66.86-21.34Q64.47-21.34 63.6-20.85 62.74-20.36 62.64-19.07L62.64-19.07Q62.61-18.46 62.57-18.05 62.52-17.65 62.54-16.94L62.54-16.94Q62.61-16.09 62.8-15.43 62.98-14.77 63.63-14.34 64.27-13.92 65.74-13.7L65.74-13.7 68.47-13.13Q71.45-12.52 72.82-11.24 74.19-9.96 74.19-7.37L74.19-7.37Q74.19-6.84 74.17-6.23 74.16-5.62 74.11-5.05L74.11-5.05Q73.94-2.2 72.32-0.95 70.7 0.29 66.64 0.29Z" opacity="1" transform="matrix(1,0,0,1,0,0)" fill="#3c3c3c" class="slogan-text-1" data-fill-palette-color="secondary" id="text-1"></path></svg></g></svg></g></svg></g></svg></g><g transform="matrix(1,0,0,1,0,83.48893324184448)"><svg viewBox="0 0 245.65351679999995 147.65051744849677" height="147.65051744849677" width="245.65351679999995"><g><svg xmlns="http://www.w3.org/2000/svg" xmlns:xlink="http://www.w3.org/1999/xlink" version="1.1" x="0" y="0" viewBox="8.462 25.034 83.075 49.93238809204734" style="enable-background:new 0 0 100 100;" xml:space="preserve" height="147.65051744849677" width="245.65351679999995" class="icon-icon-0" data-fill-palette-color="accent" id="icon-0"><g fill="#3c3c3c" data-fill-palette-color="accent"><path d="M50 25.034S40.75 35.33 40.75 48.034C40.75 59.477 44.112 68.964 48.513 70.734 48.729 62.398 50 51.034 50 51.034S51.271 62.398 51.487 70.734C55.888 68.964 59.25 59.477 59.25 48.034 59.25 35.33 50 25.034 50 25.034" fill="#3c3c3c" data-fill-palette-color="accent"></path><path d="M68.57 51.002C60.34 58.953 55.851 67.962 57.636 72.357 63.783 66.721 72.84 59.74 72.84 59.74S65.549 68.549 59.704 74.497C64.034 76.432 73.194 72.258 81.424 64.307 90.558 55.481 91.537 41.674 91.537 41.674S77.705 42.176 68.569 51.002" fill="#3c3c3c" data-fill-palette-color="accent"></path><path d="M8.462 41.674S9.442 55.48 18.577 64.307C26.807 72.258 35.965 76.432 40.296 74.497 34.451 68.549 27.161 59.739 27.161 59.739S36.217 66.721 42.363 72.357C44.148 67.963 39.66 58.953 31.43 51.002 22.295 42.176 8.462 41.674 8.462 41.674" fill="#3c3c3c" data-fill-palette-color="accent"></path></g></svg></g></svg></g></svg></g><defs></defs></svg><rect width="395.52" height="182.46993794017447" fill="none" stroke="none" visibility="hidden"></rect></g></svg></g></svg>